<?xml version="1.0" standalone="no"?>
<!DOCTYPE svg PUBLIC "-//W3C//DTD SVG 20010904//EN"
 "http://www.w3.org/TR/2001/REC-SVG-20010904/DTD/svg10.dtd">
<svg version="1.0" xmlns="http://www.w3.org/2000/svg"
 width="2500.000000pt" height="550.000000pt" viewBox="0 0 1500.000000 550.000000"
 preserveAspectRatio="xMidYMid meet">

<g transform="translate(0.000000,550.000000) scale(0.100000,-0.100000)"
fill="#000000" stroke="none" class="light-mode">
<path d="M2485 4719 c-344 -32 -702 -174 -995 -393 -182 -135 -390 -368 -501
-558 -190 -326 -279 -649 -279 -1018 0 -310 60 -579 190 -849 237 -490 637
-845 1156 -1024 180 -63 446 -107 634 -107 184 1 447 46 621 106 304 104 561
266 779 490 175 180 270 313 371 519 437 897 135 1982 -702 2525 -374 242
-823 351 -1274 309z m520 -244 c188 -34 446 -136 610 -240 341 -217 592 -531
725 -910 245 -695 20 -1477 -559 -1941 -321 -257 -683 -384 -1096 -384 -390 0
-741 115 -1052 346 -108 81 -295 271 -376 384 -141 198 -260 483 -301 720
-114 656 164 1335 703 1721 252 180 497 274 836 323 71 10 424 -3 510 -19z"/>
<path d="M1997 4036 c-58 -21 -114 -62 -147 -108 -61 -84 -61 -81 -58 -789 l3
-644 23 -50 c28 -60 71 -107 132 -143 l45 -27 669 -3 c751 -3 726 -5 810 69
25 22 57 65 73 97 l28 57 0 665 0 665 -28 57 c-30 61 -74 105 -140 140 l-42
23 -665 2 c-542 2 -672 0 -703 -11z m1330 -230 l28 -24 3 -594 c2 -326 0 -608
-3 -626 -3 -17 -16 -41 -27 -52 -21 -20 -36 -20 -645 -20 -604 0 -624 1 -642
19 -11 11 -23 35 -26 53 -3 18 -5 300 -3 626 l3 594 28 24 28 24 614 0 614 0
28 -24z"/>
<path d="M1342 2458 c3 -422 3 -423 27 -468 30 -58 85 -116 136 -143 38 -21
54 -22 418 -27 l379 -5 24 -28 c23 -27 24 -34 24 -183 l0 -154 111 0 111 0 -4
183 c-3 160 -6 188 -24 228 -31 66 -75 111 -141 145 l-58 29 -372 5 c-340 5
-374 7 -390 23 -17 16 -18 49 -21 417 l-3 400 -110 0 -110 0 3 -422z"/>
<path d="M3800 2482 l0 -399 -23 -21 c-22 -21 -31 -21 -387 -24 l-365 -3 -57
-28 c-61 -30 -105 -74 -140 -140 -21 -38 -23 -58 -26 -229 l-4 -188 111 0 111
0 0 154 c0 149 1 156 24 183 l24 28 374 5 c364 5 374 6 420 28 56 28 112 88
142 151 20 44 21 61 24 464 l3 417 -115 0 -116 0 0 -398z"/>
<path d="M5940 3575 c-255 -57 -450 -237 -510 -469 -25 -97 -27 -255 -5 -341
107 -422 570 -618 1021 -433 34 14 85 41 113 59 l51 34 0 257 0 258 -115 0
-115 0 0 -204 0 -204 -47 -20 c-211 -90 -475 -29 -597 136 -65 90 -80 141 -81
282 0 120 1 128 32 192 78 166 231 258 428 258 44 0 99 -5 122 -10 62 -14 145
-56 192 -97 l41 -35 38 30 c20 17 55 49 77 72 l40 42 -48 43 c-63 58 -134 97
-232 130 -67 23 -102 28 -210 31 -90 3 -150 -1 -195 -11z"/>
<path d="M9322 3028 c3 -541 3 -543 26 -589 29 -59 82 -112 141 -141 45 -22
55 -23 399 -26 l353 -3 -3 108 -3 108 -331 3 c-322 2 -332 3 -350 23 -18 20
-19 47 -22 540 l-3 519 -105 0 -104 0 2 -542z"/>
<path d="M7247 3269 c-135 -18 -274 -105 -346 -217 -93 -146 -101 -365 -20
-523 28 -55 119 -150 181 -186 87 -53 201 -77 333 -70 155 8 263 47 335 122
l33 34 -58 65 c-61 69 -74 76 -96 49 -23 -28 -127 -71 -188 -78 -63 -7 -169 8
-214 31 -67 35 -129 109 -151 182 l-7 22 390 0 391 0 0 63 c-1 148 -51 279
-145 373 -109 110 -261 156 -438 133z m218 -206 c70 -37 124 -106 140 -180 l7
-33 -282 0 -282 0 7 28 c21 88 89 167 169 196 59 22 189 16 241 -11z"/>
<path d="M8530 3270 c-85 -13 -163 -46 -214 -91 l-46 -41 0 66 0 67 -107 -3
-108 -3 -3 -492 -2 -493 114 0 114 0 4 298 c3 276 4 300 24 342 45 97 114 145
222 156 114 12 197 -31 240 -125 26 -56 27 -57 30 -363 l4 -308 109 0 109 0 0
325 c0 342 -5 396 -46 475 -72 142 -254 219 -444 190z"/>
<path d="M10704 3270 c-112 -12 -232 -53 -297 -102 -17 -12 -16 -17 14 -73 17
-33 38 -70 46 -83 l14 -23 25 20 c39 31 123 58 213 71 136 18 239 -19 281
-100 11 -22 20 -57 20 -80 l0 -40 -122 0 c-151 0 -284 -14 -348 -35 -59 -20
-133 -83 -163 -139 -30 -56 -31 -182 -2 -241 30 -62 96 -119 167 -146 54 -20
81 -24 183 -24 110 0 125 2 179 28 32 15 74 43 92 63 l34 35 0 -60 0 -61 105
0 105 0 0 333 c0 182 -5 351 -10 375 -32 138 -126 232 -265 266 -80 19 -184
25 -271 16z m316 -630 c0 -93 -32 -140 -125 -181 -100 -45 -247 -22 -290 45
-23 35 -22 102 2 135 39 53 73 61 251 61 l162 0 0 -60z"/>
<path d="M12930 3270 c-175 -22 -313 -120 -385 -272 -76 -160 -65 -357 26
-500 94 -146 258 -228 459 -228 157 0 294 47 370 125 l33 34 -57 66 c-32 36
-61 65 -65 65 -4 0 -25 -13 -47 -28 -82 -60 -186 -82 -294 -62 -76 14 -108 29
-161 77 -41 37 -65 75 -80 125 l-8 28 390 0 389 0 0 68 c0 146 -51 274 -144
368 -107 106 -262 155 -426 134z m202 -204 c52 -25 96 -72 124 -131 43 -91 62
-85 -256 -85 l-280 0 6 28 c20 88 87 167 168 196 56 21 189 16 238 -8z"/>
<path d="M14202 3269 c-82 -10 -166 -50 -219 -102 l-43 -41 0 72 0 73 -107 -3
-108 -3 -3 -492 -2 -493 114 0 114 0 4 288 c3 275 4 289 26 337 47 101 116
146 233 153 l79 5 0 108 c0 81 -3 109 -12 108 -7 -1 -41 -5 -76 -10z"/>
<path d="M11380 3261 c0 -6 95 -229 211 -496 155 -358 208 -491 204 -508 -4
-12 -21 -44 -38 -71 -56 -89 -158 -111 -261 -57 l-56 30 -26 -47 c-71 -125
-67 -113 -47 -128 102 -77 302 -96 416 -40 64 31 135 103 171 173 28 57 486
1109 493 1136 5 16 -3 17 -103 15 l-108 -3 -155 -362 c-86 -199 -158 -360
-160 -357 -3 3 -74 166 -157 362 l-152 357 -116 3 c-72 2 -116 -1 -116 -7z"/>
</g>

<g transform="translate(0.000000,550.000000) scale(0.100000,-0.100000)"
fill="#ffffff" stroke="none" class="dark-mode">
<path d="M2485 4719 c-344 -32 -702 -174 -995 -393 -182 -135 -390 -368 -501
-558 -190 -326 -279 -649 -279 -1018 0 -310 60 -579 190 -849 237 -490 637
-845 1156 -1024 180 -63 446 -107 634 -107 184 1 447 46 621 106 304 104 561
266 779 490 175 180 270 313 371 519 437 897 135 1982 -702 2525 -374 242
-823 351 -1274 309z m520 -244 c188 -34 446 -136 610 -240 341 -217 592 -531
725 -910 245 -695 20 -1477 -559 -1941 -321 -257 -683 -384 -1096 -384 -390 0
-741 115 -1052 346 -108 81 -295 271 -376 384 -141 198 -260 483 -301 720
-114 656 164 1335 703 1721 252 180 497 274 836 323 71 10 424 -3 510 -19z"/>
<path d="M1997 4036 c-58 -21 -114 -62 -147 -108 -61 -84 -61 -81 -58 -789 l3
-644 23 -50 c28 -60 71 -107 132 -143 l45 -27 669 -3 c751 -3 726 -5 810 69
25 22 57 65 73 97 l28 57 0 665 0 665 -28 57 c-30 61 -74 105 -140 140 l-42
23 -665 2 c-542 2 -672 0 -703 -11z m1330 -230 l28 -24 3 -594 c2 -326 0 -608
-3 -626 -3 -17 -16 -41 -27 -52 -21 -20 -36 -20 -645 -20 -604 0 -624 1 -642
19 -11 11 -23 35 -26 53 -3 18 -5 300 -3 626 l3 594 28 24 28 24 614 0 614 0
28 -24z"/>
<path d="M1342 2458 c3 -422 3 -423 27 -468 30 -58 85 -116 136 -143 38 -21
54 -22 418 -27 l379 -5 24 -28 c23 -27 24 -34 24 -183 l0 -154 111 0 111 0 -4
183 c-3 160 -6 188 -24 228 -31 66 -75 111 -141 145 l-58 29 -372 5 c-340 5
-374 7 -390 23 -17 16 -18 49 -21 417 l-3 400 -110 0 -110 0 3 -422z"/>
<path d="M3800 2482 l0 -399 -23 -21 c-22 -21 -31 -21 -387 -24 l-365 -3 -57
-28 c-61 -30 -105 -74 -140 -140 -21 -38 -23 -58 -26 -229 l-4 -188 111 0 111
0 0 154 c0 149 1 156 24 183 l24 28 374 5 c364 5 374 6 420 28 56 28 112 88
142 151 20 44 21 61 24 464 l3 417 -115 0 -116 0 0 -398z"/>
<path d="M5940 3575 c-255 -57 -450 -237 -510 -469 -25 -97 -27 -255 -5 -341
107 -422 570 -618 1021 -433 34 14 85 41 113 59 l51 34 0 257 0 258 -115 0
-115 0 0 -204 0 -204 -47 -20 c-211 -90 -475 -29 -597 136 -65 90 -80 141 -81
282 0 120 1 128 32 192 78 166 231 258 428 258 44 0 99 -5 122 -10 62 -14 145
-56 192 -97 l41 -35 38 30 c20 17 55 49 77 72 l40 42 -48 43 c-63 58 -134 97
-232 130 -67 23 -102 28 -210 31 -90 3 -150 -1 -195 -11z"/>
<path d="M9322 3028 c3 -541 3 -543 26 -589 29 -59 82 -112 141 -141 45 -22
55 -23 399 -26 l353 -3 -3 108 -3 108 -331 3 c-322 2 -332 3 -350 23 -18 20
-19 47 -22 540 l-3 519 -105 0 -104 0 2 -542z"/>
<path d="M7247 3269 c-135 -18 -274 -105 -346 -217 -93 -146 -101 -365 -20
-523 28 -55 119 -150 181 -186 87 -53 201 -77 333 -70 155 8 263 47 335 122
l33 34 -58 65 c-61 69 -74 76 -96 49 -23 -28 -127 -71 -188 -78 -63 -7 -169 8
-214 31 -67 35 -129 109 -151 182 l-7 22 390 0 391 0 0 63 c-1 148 -51 279
-145 373 -109 110 -261 156 -438 133z m218 -206 c70 -37 124 -106 140 -180 l7
-33 -282 0 -282 0 7 28 c21 88 89 167 169 196 59 22 189 16 241 -11z"/>
<path d="M8530 3270 c-85 -13 -163 -46 -214 -91 l-46 -41 0 66 0 67 -107 -3
-108 -3 -3 -492 -2 -493 114 0 114 0 4 298 c3 276 4 300 24 342 45 97 114 145
222 156 114 12 197 -31 240 -125 26 -56 27 -57 30 -363 l4 -308 109 0 109 0 0
325 c0 342 -5 396 -46 475 -72 142 -254 219 -444 190z"/>
<path d="M10704 3270 c-112 -12 -232 -53 -297 -102 -17 -12 -16 -17 14 -73 17
-33 38 -70 46 -83 l14 -23 25 20 c39 31 123 58 213 71 136 18 239 -19 281
-100 11 -22 20 -57 20 -80 l0 -40 -122 0 c-151 0 -284 -14 -348 -35 -59 -20
-133 -83 -163 -139 -30 -56 -31 -182 -2 -241 30 -62 96 -119 167 -146 54 -20
81 -24 183 -24 110 0 125 2 179 28 32 15 74 43 92 63 l34 35 0 -60 0 -61 105
0 105 0 0 333 c0 182 -5 351 -10 375 -32 138 -126 232 -265 266 -80 19 -184
25 -271 16z m316 -630 c0 -93 -32 -140 -125 -181 -100 -45 -247 -22 -290 45
-23 35 -22 102 2 135 39 53 73 61 251 61 l162 0 0 -60z"/>
<path d="M12930 3270 c-175 -22 -313 -120 -385 -272 -76 -160 -65 -357 26
-500 94 -146 258 -228 459 -228 157 0 294 47 370 125 l33 34 -57 66 c-32 36
-61 65 -65 65 -4 0 -25 -13 -47 -28 -82 -60 -186 -82 -294 -62 -76 14 -108 29
-161 77 -41 37 -65 75 -80 125 l-8 28 390 0 389 0 0 68 c0 146 -51 274 -144
368 -107 106 -262 155 -426 134z m202 -204 c52 -25 96 -72 124 -131 43 -91 62
-85 -256 -85 l-280 0 6 28 c20 88 87 167 168 196 56 21 189 16 238 -8z"/>
<path d="M14202 3269 c-82 -10 -166 -50 -219 -102 l-43 -41 0 72 0 73 -107 -3
-108 -3 -3 -492 -2 -493 114 0 114 0 4 288 c3 275 4 289 26 337 47 101 116
146 233 153 l79 5 0 108 c0 81 -3 109 -12 108 -7 -1 -41 -5 -76 -10z"/>
<path d="M11380 3261 c0 -6 95 -229 211 -496 155 -358 208 -491 204 -508 -4
-12 -21 -44 -38 -71 -56 -89 -158 -111 -261 -57 l-56 30 -26 -47 c-71 -125
-67 -113 -47 -128 102 -77 302 -96 416 -40 64 31 135 103 171 173 28 57 486
1109 493 1136 5 16 -3 17 -103 15 l-108 -3 -155 -362 c-86 -199 -158 -360
-160 -357 -3 3 -74 166 -157 362 l-152 357 -116 3 c-72 2 -116 -1 -116 -7z"/>
</g>

<style>
  .dark-mode {
    display: none;
  }

  @media (prefers-color-scheme: dark) {
    .dark-mode {
      display: block;
    }
    .light-mode {
      display: none;
    }
  }
</style>
</svg>
